<svg width="25" height="24" viewBox="0 0 25 24" fill="none" xmlns="http://www.w3.org/2000/svg">
<path d="M24.3585 0H0.498047V24H24.3585V16.0799C24.4515 15.9401 24.498 15.7669 24.498 15.5537C24.498 15.3072 24.4515 15.154 24.3585 15.0275V0Z" fill="#A0A0A0"/>
<path d="M0.498047 12.1498H1.64122L1.90043 11.5236H2.47866L2.73787 12.1498H4.99099V11.6702L5.19038 12.1498H6.36013L6.55953 11.6635V12.1498H12.1624V11.124H12.2687C12.3485 11.124 12.3684 11.1373 12.3684 11.2572V12.1498H15.2663V11.91C15.4989 12.0365 15.8644 12.1498 16.343 12.1498H17.5659L17.8251 11.5236H18.4033L18.6559 12.1498H21.0021V11.5569L21.361 12.1498H23.2419V8.22638H21.3809V8.69266L21.1217 8.22638H19.2075V8.69266L18.9683 8.22638H16.3895C15.9575 8.22638 15.5786 8.28633 15.2663 8.45286V8.22638H13.485V8.45286C13.2856 8.27967 13.0198 8.22638 12.7273 8.22638H6.22056L5.7819 9.23887L5.3366 8.22638H3.28952V8.69266L3.06354 8.22638H1.31555L0.504693 10.0915V12.1498H0.498047ZM22.6437 11.5969H21.6933L20.4238 9.48533V11.5969H19.0613L18.8021 10.9708H17.4064L17.1538 11.5969H16.3695C16.0439 11.5969 15.6318 11.5236 15.3992 11.2905C15.1599 11.0507 15.0403 10.731 15.0403 10.2181C15.0403 9.7984 15.1134 9.41872 15.3992 9.11897C15.6185 8.89249 15.9575 8.79257 16.4161 8.79257H17.0608V9.39207H16.4294C16.1835 9.39207 16.0439 9.42538 15.911 9.5586C15.798 9.6785 15.7182 9.89832 15.7182 10.1981C15.7182 10.4978 15.778 10.7176 15.9043 10.8575C16.004 10.9641 16.1967 11.0041 16.3695 11.0041H16.6686L17.6124 8.79257H18.616L19.7525 11.4504V8.79257H20.7761L21.9525 10.7509V8.79257H22.6371V11.6036L22.6437 11.5969ZM14.708 11.5969H14.0234V8.78591H14.708V11.5969ZM13.6313 9.54528C13.6313 9.99158 13.3322 10.2247 13.1594 10.2913C13.3056 10.3446 13.4319 10.4445 13.4917 10.5311C13.5847 10.671 13.6047 10.7976 13.6047 11.044V11.5969H12.9267V11.2439C12.9267 11.0773 12.94 10.8309 12.8137 10.6977C12.7141 10.5977 12.5678 10.5778 12.3286 10.5778H11.6108V11.5969H10.9395V8.78591H12.4814C12.8204 8.78591 13.073 8.79924 13.2923 8.91914C13.505 9.0457 13.6313 9.22555 13.6313 9.54528ZM10.4742 11.5969H8.23441V8.78591H10.4742V9.37209H8.90569V9.87834H10.4344V10.4579H8.90569V11.0174H10.4742V11.5969ZM7.73593 11.5969H7.05136V9.39874L6.07434 11.5969H5.48946L4.51245 9.39207V11.5969H3.14994L2.89074 10.9708H1.495L1.23579 11.5969H0.504693L1.70104 8.78591H2.69799L3.83452 11.4504V8.78591H4.93117L5.80849 10.6977L6.6127 8.78591H7.72928V11.5969H7.73593ZM18.5695 10.3846L18.1042 9.26551L17.6457 10.3846H18.5695ZM12.7606 9.93829C12.6675 9.99158 12.5612 9.99824 12.4283 9.99824H11.6108V9.37209H12.4349C12.5545 9.37209 12.6742 9.37209 12.7539 9.41872C12.8403 9.45869 12.8935 9.54528 12.8935 9.66518C12.8935 9.78508 12.8403 9.885 12.7539 9.93162L12.7606 9.93829ZM2.65147 10.3846L2.19287 9.26551L1.73427 10.3846H2.65147Z" fill="white"/>
<path d="M13.4921 14.5544C13.4921 15.3338 12.9138 15.4937 12.3223 15.4937H11.4849V16.4395H10.1822L9.35805 15.507L8.50067 16.4395H5.84212V13.6285H8.54054L9.36469 14.5478L10.2154 13.6285H12.3556C12.8873 13.6285 13.4854 13.7751 13.4854 14.5544H13.4921ZM8.1617 15.8534H6.51341V15.2938H7.98225V14.721H6.51341V14.2081H8.19493L8.92603 15.0274L8.1617 15.8534ZM10.8202 16.1864L9.79006 15.0407L10.8202 13.935V16.1864ZM12.3556 14.9275H11.4849V14.2147H12.3622C12.6081 14.2147 12.7743 14.3146 12.7743 14.5611C12.7743 14.8076 12.6148 14.9275 12.3556 14.9275ZM16.8751 13.6285H19.1149V14.2081H17.5464V14.721H19.075V15.2938H17.5464V15.8534H19.1149V16.4395H16.8751V13.6285ZM16.0243 15.134C16.1706 15.1872 16.2968 15.2872 16.35 15.3738C16.4431 15.5136 16.463 15.6402 16.463 15.8867V16.4462H15.7917V16.0932C15.7917 15.9266 15.805 15.6735 15.6854 15.5469C15.5857 15.447 15.4395 15.4204 15.1936 15.4204H14.4757V16.4462H13.8045V13.6352H15.3531C15.692 13.6352 15.9379 13.6485 16.1573 13.7684C16.37 13.895 16.5029 14.0748 16.5029 14.3946C16.5029 14.8409 16.2038 15.074 16.031 15.1406L16.0243 15.134ZM15.6189 14.7876C15.5325 14.8409 15.4195 14.8475 15.2866 14.8475H14.4691V14.2147H15.2932C15.4129 14.2147 15.5325 14.2147 15.6123 14.2613C15.6987 14.308 15.7518 14.3946 15.7518 14.5145C15.7518 14.6344 15.6987 14.7343 15.6123 14.7876H15.6189ZM21.6671 14.9608C21.8 15.1006 21.8665 15.2672 21.8665 15.5536C21.8665 16.1598 21.4876 16.4395 20.8164 16.4395H19.507V15.8334H20.8097C20.936 15.8334 21.0291 15.8134 21.0822 15.7601C21.1287 15.7201 21.162 15.6535 21.162 15.5802C21.162 15.5003 21.1287 15.4337 21.0822 15.3937C21.0291 15.3471 20.9626 15.3338 20.843 15.3271C20.2182 15.3071 19.4339 15.3471 19.4339 14.4545C19.4339 14.0482 19.6865 13.6152 20.391 13.6152H21.7336V14.2147H20.504C20.3777 14.2147 20.3046 14.2147 20.2315 14.268C20.1584 14.3146 20.1318 14.3812 20.1318 14.4678C20.1318 14.5744 20.1916 14.6477 20.278 14.6743C20.3511 14.701 20.4242 14.7076 20.5372 14.7076H20.8961C21.2617 14.7276 21.5076 14.7876 21.6605 14.9408L21.6671 14.9608ZM24.3456 16.0865C24.1794 16.3263 23.867 16.4462 23.435 16.4462H22.139V15.84H23.4284C23.5547 15.84 23.6477 15.82 23.7009 15.7668C23.7474 15.7268 23.7806 15.6602 23.7806 15.5869C23.7806 15.507 23.7474 15.4404 23.7009 15.4004C23.6477 15.3538 23.5813 15.3404 23.4616 15.3338C22.8302 15.3138 22.0459 15.3538 22.0459 14.4612C22.0459 14.0549 22.3052 13.6219 23.0097 13.6219H24.3456V13.0623H23.1027C22.7305 13.0623 22.458 13.1489 22.2653 13.2955V13.0623H20.4309C20.1384 13.0623 19.7928 13.1356 19.6267 13.2955V13.0623H16.35V13.2955C16.0908 13.109 15.6521 13.0623 15.4461 13.0623H13.286V13.2955C13.08 13.0957 12.6214 13.0623 12.3423 13.0623H9.92299L9.37134 13.6618L8.85292 13.0623H5.2373V16.9857H8.78646L9.35805 16.3729L9.8964 16.9857H12.0831V16.0665H12.3024C12.5882 16.0665 12.9338 16.0665 13.2329 15.9266V16.9857H15.034V15.9599H15.1204C15.2334 15.9599 15.2401 15.9599 15.2401 16.0732V16.9791H20.7167C21.0623 16.9791 21.4278 16.8925 21.6272 16.726V16.9791H23.3686C23.7275 16.9791 24.0797 16.9258 24.3522 16.7992V16.0665L24.3456 16.0865ZM24.3456 14.2347H23.1227C23.003 14.2347 22.9166 14.2347 22.8502 14.288C22.777 14.3346 22.7505 14.4012 22.7505 14.4878C22.7505 14.5944 22.8103 14.6677 22.8967 14.6943C22.9631 14.721 23.0429 14.7276 23.1559 14.7276H23.5148C23.8803 14.7476 24.1263 14.8076 24.2791 14.9608C24.3057 14.9807 24.319 15.0074 24.3389 15.034V14.2347H24.3456Z" fill="white"/>
</svg>
