<svg width="90" height="14" viewBox="0 0 90 14" fill="none" xmlns="http://www.w3.org/2000/svg">
<path fill-rule="evenodd" clip-rule="evenodd" d="M2.0255 5.013C2.27081 3.99767 2.55682 2.81389 4.25717 2.81389H11.1008C13.6114 2.81389 13.278 4.1931 13.08 5.013L12.1772 8.74908H4.92438L4.65058 9.88144C4.47042 10.627 4.97171 11.083 5.90357 11.083H11.6133L10.9787 13.7102H2.49372C-0.0758847 13.7102 0.148048 12.7834 0.461551 11.4861L2.0255 5.013ZM5.42212 6.68942H8.81467L9.04623 5.78098C9.11749 5.50208 9.21978 5.06287 8.56631 5.06287H6.50412C5.96668 5.06287 5.75039 5.39724 5.66183 5.74738L5.42212 6.68942ZM23.5412 2.81389H16.9093C14.8735 2.81389 14.5809 3.98393 14.33 5.06287C14.0796 6.14231 14.4628 7.13321 15.7804 8.07473C17.0981 9.01626 18.5684 9.62596 18.3205 10.4718C18.2162 10.827 17.7739 11.083 16.8858 11.083H12.8754L12.2408 13.7102H18.8376C20.1262 13.7102 21.7212 13.7336 22.4826 12.5177C23.2439 11.3014 23.0292 10.3273 22.3416 9.31959C21.6535 8.3119 20.3099 7.66505 19.3079 6.68942C18.7175 6.11433 18.7496 5.06287 19.7079 5.06287H22.9976L23.5412 2.81389ZM24.7809 2.81389H26.9113L27.5912 0.000512537H31.4703L30.7904 2.81389C31.4724 2.81389 32.0933 2.81389 32.7758 2.81389C32.5946 3.56355 32.4134 4.31321 32.2327 5.06287H30.2474L29.0163 10.1578C28.7928 11.083 29.0804 11.4678 30.2672 11.4678L29.7252 13.7107H26.8752C24.2786 13.7107 24.7076 11.934 24.9132 11.0835L26.3678 5.06287H24.2374L24.7809 2.81389ZM33.475 5.06287L34.0186 2.81389H42.2943C44.3107 2.81389 44.0613 4.31626 43.8812 5.06287L42.3335 11.4678C41.9279 13.1478 42.4465 13.274 42.7753 13.7107H39.0819C38.6646 13.7107 38.1262 13.4048 37.9368 13.2038C37.0656 13.4689 37.0065 14.0303 35.1922 13.9987C33.3778 13.9672 31.3507 12.3452 31.5207 10.1741C31.6902 8.00297 33.5875 6.68891 35.3011 6.68891H39.5105L39.7502 5.697C39.9034 5.06236 39.4056 5.06235 39.1038 5.06235H33.475V5.06287ZM39.1725 8.51395H36.6284C35.5891 8.51395 34.1534 9.76542 35.3561 11.0062C36.5587 12.247 38.7384 10.3772 39.1725 8.51395ZM53.5911 0H49.9517C49.0148 0 47.8208 3.03348e-06 47.3404 1.9879L47.1409 2.81338H45.5128L44.9693 5.06235H46.5974L44.7097 12.876C44.6283 13.2124 44.5036 13.4323 44.0909 13.7102H47.0493C48.0463 13.7102 48.5842 12.7854 48.9023 11.4673L50.4495 5.06235H52.3676L52.9112 2.81338H50.993L51.108 2.33703C51.1915 1.99248 51.4882 1.73954 52.0078 1.74666L53.1651 1.76142L53.5911 0ZM53.7189 5.013C53.9642 3.99767 54.2502 2.81389 55.9505 2.81389H62.7942C65.3047 2.81389 64.9709 4.1931 64.7734 5.013L63.8706 8.74908H56.6177L56.3439 9.88144C56.1638 10.627 56.6651 11.083 57.5969 11.083H63.3067L62.672 13.7102H54.1871C51.6175 13.7102 51.8414 12.7834 52.1549 11.4861L53.7189 5.013ZM57.1155 6.68942H60.508L60.7396 5.78098C60.8108 5.50208 60.9131 5.06287 60.2597 5.06287H58.1975C57.66 5.06287 57.4437 5.39724 57.3552 5.74738L57.1155 6.68942ZM66.4473 2.81389H68.5777L69.2576 0.000512537H73.1367L72.4568 2.81389C73.1387 2.81389 73.7596 2.81389 74.4421 2.81389C74.2609 3.56355 74.0798 4.31321 73.8986 5.06287H71.9132L70.6821 10.1578C70.4587 11.083 70.7462 11.4678 71.9331 11.4678L71.3911 13.7107H68.541C65.9445 13.7107 66.3735 11.934 66.5791 11.0835L68.0336 5.06287H65.9032L66.4473 2.81389ZM75.1399 5.06287L75.6834 2.81389H83.9592C85.9761 2.81389 85.7262 4.31626 85.546 5.06287L83.9984 11.4678C83.5922 13.1478 84.1113 13.274 84.4401 13.7107H80.7468C80.3295 13.7107 79.791 13.4048 79.6017 13.2038C78.7304 13.4689 78.6713 14.0303 76.857 13.9987C75.0426 13.9672 73.0161 12.3452 73.1856 10.1741C73.355 8.00297 75.2523 6.68891 76.9659 6.68891H81.1748L81.4145 5.697C81.5682 5.06236 81.0699 5.06235 80.7682 5.06235H75.1399V5.06287ZM80.8379 8.51395H78.2937C77.255 8.51395 75.8193 9.76542 77.0214 11.0062C78.2235 12.247 80.4032 10.3772 80.8379 8.51395Z" fill="#A0A0A0"/>
<path d="M88.1291 2.46436C88.5684 2.46436 88.9663 2.64349 89.2554 2.93205C89.544 3.22062 89.7231 3.61912 89.7231 4.05833C89.7231 4.49703 89.544 4.89604 89.2554 5.1846H89.2549C88.9663 5.47316 88.5678 5.6523 88.1291 5.6523C87.6904 5.6523 87.2919 5.47316 87.0034 5.1846L87.0029 5.18409C86.7143 4.89552 86.5352 4.49703 86.5352 4.05833C86.5352 3.61963 86.7143 3.22113 87.0029 2.93256V2.93205C87.2914 2.64349 87.6904 2.46436 88.1291 2.46436Z" fill="#A0A0A0"/>
<path d="M88.5037 3.96102H88.8284C88.8971 3.96102 88.9515 3.9539 88.9902 3.93965C89.0294 3.9254 89.0589 3.90249 89.0788 3.87094C89.0991 3.83938 89.1088 3.80529 89.1088 3.76865C89.1088 3.7147 89.0894 3.67042 89.0503 3.63531C89.0111 3.6007 88.9495 3.58339 88.8645 3.58339H88.5037V3.96102ZM88.353 4.59821V3.45667H88.8589C88.9607 3.45667 89.038 3.46685 89.091 3.48771C89.1439 3.50807 89.1861 3.54421 89.2182 3.59612C89.2497 3.64854 89.2655 3.70553 89.2655 3.76813C89.2655 3.84905 89.2396 3.91726 89.1872 3.97273C89.1347 4.0282 89.0538 4.06384 88.9444 4.0791C88.9846 4.09794 89.0146 4.11727 89.0355 4.13559C89.0798 4.1758 89.1215 4.22669 89.1612 4.28726L89.3597 4.5977H89.1698L89.0187 4.36002C88.9744 4.29183 88.9383 4.2389 88.9093 4.20277C88.8808 4.16663 88.8553 4.14068 88.8329 4.12643C88.8105 4.11167 88.7876 4.102 88.7642 4.09589C88.7469 4.09233 88.7189 4.0908 88.6798 4.0908H88.5047V4.5977H88.353V4.59821ZM87.0176 4.59821V3.45667H87.2451L87.5148 4.26486C87.5397 4.34018 87.5581 4.39668 87.5693 4.43383C87.5825 4.3926 87.6023 4.33102 87.6303 4.2506L87.9036 3.45667H88.1067V4.59821H87.9611V3.64293L87.6293 4.59821H87.4929L87.1626 3.62666V4.59821H87.0176Z" fill="#A0A0A0"/>
</svg>
