<svg width="30" height="24" viewBox="0 0 30 24" fill="none" xmlns="http://www.w3.org/2000/svg">
<g clip-path="url(#clip0_5602_51004)">
<path d="M5.49453 23.8623V22.2732C5.49453 21.6747 5.12724 21.2721 4.53551 21.2668C4.22434 21.2615 3.90296 21.3622 3.67851 21.7171C3.51017 21.4363 3.24491 21.2668 2.87253 21.2668C2.61237 21.2668 2.35731 21.3463 2.15837 21.6429V21.3304H1.62784V23.8623H2.16347V22.4586C2.16347 22.019 2.39812 21.7859 2.7603 21.7859C3.12249 21.7859 3.29082 22.0243 3.29082 22.4533V23.8623H3.82645V22.4586C3.82645 22.019 4.0713 21.7859 4.42328 21.7859C4.77526 21.7859 4.95891 22.0243 4.95891 22.4533V23.8623H5.49453ZM13.4217 21.3304H12.5545V20.5623H12.0189V21.3304H11.5241V21.8336H12.0189V22.9883C12.0189 23.5763 12.2383 23.9258 12.8657 23.9258C13.0953 23.9258 13.3605 23.8517 13.5289 23.7299L13.3758 23.2584C13.2177 23.3538 13.0443 23.4015 12.9065 23.4015C12.6413 23.4015 12.5545 23.232 12.5545 22.9777V21.8336H13.4217V21.3304ZM17.9465 21.2668C17.6404 21.2668 17.4415 21.4151 17.3037 21.6376V21.3304H16.7783V23.8623H17.3088V22.4427C17.3088 22.0243 17.4823 21.7912 17.8291 21.7912C17.9363 21.7912 18.0485 21.8071 18.1607 21.8548L18.324 21.3357C18.2066 21.288 18.0536 21.2668 17.9465 21.2668ZM11.1058 21.5317C10.8507 21.3569 10.4988 21.2668 10.1111 21.2668C9.49384 21.2668 9.09595 21.574 9.09595 22.0772C9.09595 22.4904 9.39182 22.7446 9.93764 22.8241L10.1876 22.8612C10.4784 22.9036 10.6161 22.983 10.6161 23.126C10.6161 23.322 10.4223 23.4332 10.0601 23.4332C9.69789 23.4332 9.42753 23.3114 9.24898 23.1684L8.99903 23.5974C9.28979 23.8199 9.65708 23.9258 10.055 23.9258C10.7589 23.9258 11.167 23.5816 11.167 23.0995C11.167 22.6546 10.8456 22.4215 10.3151 22.3421L10.0652 22.305C9.83562 22.2732 9.65198 22.2256 9.65198 22.0561C9.65198 21.8707 9.82542 21.7594 10.1162 21.7594C10.4274 21.7594 10.7283 21.8813 10.8763 21.9766L11.1058 21.5317ZM25.3151 21.2668C25.009 21.2668 24.8101 21.4151 24.6724 21.6376V21.3304H24.1469V23.8623H24.6775V22.4427C24.6775 22.0243 24.8509 21.7912 25.1978 21.7912C25.3049 21.7912 25.4171 21.8071 25.5294 21.8548L25.6926 21.3357C25.5753 21.288 25.4222 21.2668 25.3151 21.2668ZM18.4795 22.5963C18.4795 23.3644 18.9948 23.9258 19.7803 23.9258C20.1476 23.9258 20.3925 23.8411 20.6577 23.6239L20.4027 23.179C20.2037 23.3273 19.9946 23.4068 19.765 23.4068C19.3416 23.4015 19.0305 23.0836 19.0305 22.5963C19.0305 22.109 19.3416 21.7912 19.765 21.7859C19.9946 21.7859 20.2037 21.8654 20.4027 22.0137L20.6577 21.5688C20.3925 21.3516 20.1476 21.2668 19.7803 21.2668C18.9948 21.2668 18.4795 21.8283 18.4795 22.5963ZM23.4481 22.5963V21.3304H22.9176V21.6376C22.7492 21.4098 22.4942 21.2668 22.1473 21.2668C21.4637 21.2668 20.9281 21.823 20.9281 22.5963C20.9281 23.3697 21.4637 23.9258 22.1473 23.9258C22.4942 23.9258 22.7492 23.7828 22.9176 23.5551V23.8623H23.4481V22.5963ZM21.4739 22.5963C21.4739 22.1514 21.7545 21.7859 22.2136 21.7859C22.6727 21.7859 22.9482 22.1355 22.9482 22.5963C22.9482 23.0572 22.6523 23.4068 22.2136 23.4068C21.7749 23.4068 21.4739 23.0413 21.4739 22.5963ZM15.072 21.2668C14.3578 21.2668 13.8579 21.8071 13.8579 22.5963C13.8579 23.3856 14.3782 23.9258 15.1077 23.9258C15.475 23.9258 15.8116 23.8305 16.1075 23.571L15.8473 23.1631C15.6433 23.3326 15.3831 23.4279 15.1383 23.4279C14.7965 23.4279 14.4853 23.2637 14.4088 22.8082H16.2197C16.2248 22.7394 16.2299 22.6705 16.2299 22.5963C16.2248 21.8071 15.7555 21.2668 15.072 21.2668ZM15.0618 21.7594C15.4035 21.7594 15.6229 21.9819 15.679 22.3739H14.4139C14.47 22.0084 14.6843 21.7594 15.0618 21.7594ZM28.3682 22.5963V20.3134H27.8376V21.6376C27.6693 21.4098 27.4142 21.2668 27.0674 21.2668C26.3838 21.2668 25.8482 21.823 25.8482 22.5963C25.8482 23.3697 26.3838 23.9258 27.0674 23.9258C27.4142 23.9258 27.6693 23.7828 27.8376 23.5551V23.8623H28.3682V22.5963ZM26.394 22.5963C26.394 22.1514 26.6746 21.7859 27.1337 21.7859C27.5928 21.7859 27.8682 22.1355 27.8682 22.5963C27.8682 23.0572 27.5724 23.4068 27.1337 23.4068C26.695 23.4068 26.394 23.0413 26.394 22.5963ZM8.48126 22.5963V21.3304H7.95074V21.6376C7.7824 21.4098 7.52734 21.2668 7.18046 21.2668C6.49691 21.2668 5.96128 21.823 5.96128 22.5963C5.96128 23.3697 6.49691 23.9258 7.18046 23.9258C7.52734 23.9258 7.7824 23.7828 7.95074 23.5551V23.8623H8.48126V22.5963ZM6.50711 22.5963C6.50711 22.1514 6.78767 21.7859 7.24678 21.7859C7.70588 21.7859 7.98135 22.1355 7.98135 22.5963C7.98135 23.0572 7.68548 23.4068 7.24678 23.4068C6.80808 23.4068 6.50711 23.0413 6.50711 22.5963ZM29.2507 23.4942C29.2838 23.4942 29.317 23.4994 29.3476 23.5127C29.3782 23.5259 29.4037 23.5445 29.4266 23.5657C29.4496 23.5895 29.4675 23.616 29.4802 23.6451C29.493 23.6742 29.5006 23.7087 29.5006 23.7431C29.5006 23.7775 29.493 23.8093 29.4802 23.8411C29.4675 23.8702 29.4496 23.8994 29.4266 23.9205C29.4037 23.9444 29.3782 23.9603 29.3476 23.9735C29.317 23.9868 29.2864 23.9947 29.2507 23.9947C29.2149 23.9947 29.1843 23.9868 29.1537 23.9735C29.1231 23.9603 29.0976 23.9417 29.0747 23.9205C29.0517 23.8967 29.0339 23.8702 29.0211 23.8411C29.0083 23.812 29.0007 23.7775 29.0007 23.7431C29.0007 23.7087 29.0083 23.6769 29.0211 23.6451C29.0339 23.6133 29.0517 23.5868 29.0747 23.5657C29.0976 23.5418 29.1231 23.5259 29.1537 23.5127C29.1843 23.4994 29.2175 23.4942 29.2507 23.4942ZM29.2507 23.9417C29.2762 23.9417 29.3017 23.9364 29.3246 23.9258C29.3476 23.9153 29.368 23.902 29.3833 23.8835C29.4011 23.8649 29.4139 23.8437 29.4241 23.8199C29.4343 23.7961 29.4394 23.7696 29.4394 23.7431C29.4394 23.7166 29.4343 23.6901 29.4241 23.6663C29.4139 23.6425 29.4011 23.6213 29.3833 23.6027C29.3654 23.5842 29.3476 23.571 29.3246 23.5604C29.3017 23.5498 29.2787 23.5445 29.2507 23.5445C29.2226 23.5445 29.1996 23.5498 29.1767 23.5604C29.1537 23.571 29.1333 23.5842 29.1155 23.6027C29.0976 23.6213 29.0849 23.6425 29.0747 23.6663C29.0645 23.6901 29.0594 23.7166 29.0594 23.7431C29.0594 23.7696 29.0645 23.7961 29.0747 23.8199C29.0849 23.8437 29.0976 23.8649 29.1155 23.8835C29.1333 23.902 29.1537 23.9153 29.1767 23.9258C29.1996 23.9364 29.2251 23.9417 29.2507 23.9417ZM29.266 23.6266C29.294 23.6266 29.317 23.6345 29.3323 23.6478C29.3476 23.661 29.3552 23.6795 29.3552 23.7034C29.3552 23.7219 29.3501 23.7378 29.3374 23.751C29.3246 23.7643 29.3068 23.7722 29.2838 23.7749L29.3578 23.8623H29.2991L29.2302 23.7749H29.2073V23.8623H29.1588V23.6292H29.2634L29.266 23.6266ZM29.2098 23.6716V23.7352H29.266C29.266 23.7352 29.2889 23.7352 29.2966 23.7272C29.3042 23.7219 29.3068 23.714 29.3068 23.7034C29.3068 23.6928 29.3042 23.6848 29.2966 23.6795C29.2889 23.6742 29.2787 23.6716 29.266 23.6716H29.2098ZM28.9216 15.4403V15.1331H29.0415V15.0695H28.738V15.1331H28.8579V15.4403H28.9242H28.9216ZM29.5108 15.4403V15.0695H29.419L29.3119 15.3238L29.2047 15.0695H29.1129V15.4403H29.1792V15.1622L29.2787 15.4032H29.3476L29.447 15.1622V15.4429H29.5134L29.5108 15.4403ZM14.1282 17.281C14.1997 17.3445 14.2762 17.4081 14.3501 17.4716C12.8938 18.478 11.1466 19.066 9.26684 19.066C4.20138 19.0686 0.0898438 14.7994 0.0898438 9.53432C0.0898438 4.26926 4.20138 0 9.27194 0C11.1517 0 12.8989 0.58795 14.3553 1.59435C14.2813 1.65791 14.2048 1.71883 14.1334 1.78504C11.9705 3.73957 10.7283 6.56544 10.7283 9.53432C10.7283 12.5032 11.9679 15.3291 14.1334 17.2836L14.1282 17.281ZM20.622 0C18.7423 0 16.9951 0.58795 15.5387 1.59435C15.6127 1.65791 15.6892 1.71883 15.7606 1.78504C17.9235 3.73957 19.1656 6.56279 19.1656 9.53432C19.1656 12.5058 17.9261 15.3291 15.7632 17.2836C15.6918 17.3472 15.6152 17.4107 15.5413 17.4743C16.9977 18.4807 18.7448 19.0686 20.6246 19.0686C25.6951 19.0686 29.8067 14.7994 29.8067 9.53432C29.8067 4.26926 25.6926 0 20.622 0ZM14.947 2.04193C14.8297 2.13728 14.7123 2.23792 14.6001 2.34121C12.6642 4.08916 11.4399 6.66343 11.4399 9.53432C11.4399 12.4052 12.6642 14.9795 14.6001 16.7274C14.7123 16.8307 14.8297 16.9287 14.947 17.0267C15.0643 16.9287 15.1816 16.8307 15.2939 16.7274C17.2298 14.9795 18.454 12.4052 18.454 9.53432C18.454 6.66343 17.2298 4.08916 15.2939 2.34121C15.1816 2.23792 15.0643 2.13993 14.947 2.04193Z" fill="#A0A0A0"/>
</g>
<defs>
<clipPath id="clip0_5602_51004">
<rect width="29.7143" height="24" fill="white" transform="translate(0.0898438)"/>
</clipPath>
</defs>
</svg>
