<svg xmlns="http://www.w3.org/2000/svg" xmlns:xlink="http://www.w3.org/1999/xlink" width="64px" height="26px" viewBox="0 0 64 26" version="1.1">
<g id="surface1">
<path style=" stroke:none;fill-rule:nonzero;fill:#a0a0a0;fill-opacity:1;" d="M 55.871094 8.605469 C 55.550781 8.195312 55.058594 7.992188 54.402344 7.992188 C 53.746094 7.992188 53.257812 8.195312 52.933594 8.605469 C 52.609375 9.011719 52.449219 9.492188 52.449219 10.050781 C 52.449219 10.605469 52.609375 11.097656 52.933594 11.5 C 53.257812 11.902344 53.746094 12.101562 54.402344 12.101562 C 55.058594 12.101562 55.550781 11.902344 55.871094 11.5 C 56.195312 11.097656 56.355469 10.613281 56.355469 10.050781 C 56.355469 9.484375 56.195312 9.011719 55.871094 8.605469 Z M 55.074219 10.941406 C 54.917969 11.152344 54.691406 11.257812 54.398438 11.257812 C 54.105469 11.257812 53.882812 11.152344 53.722656 10.941406 C 53.566406 10.734375 53.488281 10.433594 53.488281 10.046875 C 53.488281 9.660156 53.566406 9.367188 53.722656 9.15625 C 53.882812 8.949219 54.109375 8.84375 54.398438 8.84375 C 54.691406 8.84375 54.917969 8.949219 55.074219 9.15625 C 55.230469 9.367188 55.308594 9.664062 55.308594 10.046875 C 55.308594 10.433594 55.230469 10.734375 55.074219 10.941406 Z M 55.074219 10.941406 "/>
<path style=" stroke:none;fill-rule:nonzero;fill:#a0a0a0;fill-opacity:1;" d="M 47.628906 8.261719 C 47.300781 8.097656 46.925781 8.011719 46.503906 8.011719 C 45.855469 8.011719 45.398438 8.183594 45.132812 8.523438 C 44.964844 8.738281 44.871094 9.019531 44.851562 9.355469 L 45.820312 9.355469 C 45.84375 9.207031 45.890625 9.089844 45.960938 9 C 46.0625 8.882812 46.230469 8.824219 46.46875 8.824219 C 46.683594 8.824219 46.847656 8.855469 46.957031 8.914062 C 47.066406 8.976562 47.125 9.085938 47.125 9.242188 C 47.125 9.375 47.050781 9.46875 46.90625 9.53125 C 46.828125 9.566406 46.695312 9.59375 46.507812 9.617188 L 46.164062 9.660156 C 45.773438 9.710938 45.476562 9.792969 45.277344 9.910156 C 44.910156 10.121094 44.730469 10.464844 44.730469 10.941406 C 44.730469 11.308594 44.839844 11.589844 45.070312 11.789062 C 45.296875 11.988281 45.585938 12.074219 45.933594 12.089844 C 48.121094 12.1875 48.097656 10.929688 48.117188 10.664062 L 48.117188 9.214844 C 48.117188 8.75 47.953125 8.429688 47.628906 8.261719 Z M 47.121094 10.464844 C 47.113281 10.804688 47.015625 11.039062 46.832031 11.164062 C 46.648438 11.292969 46.445312 11.355469 46.226562 11.355469 C 46.089844 11.355469 45.972656 11.316406 45.875 11.242188 C 45.777344 11.164062 45.730469 11.039062 45.730469 10.867188 C 45.730469 10.671875 45.808594 10.53125 45.96875 10.4375 C 46.0625 10.382812 46.214844 10.335938 46.429688 10.300781 L 46.65625 10.257812 C 46.769531 10.234375 46.859375 10.210938 46.925781 10.1875 C 46.992188 10.164062 47.054688 10.132812 47.117188 10.089844 L 47.117188 10.46875 Z M 47.121094 10.464844 "/>
<path style=" stroke:none;fill-rule:nonzero;fill:#a0a0a0;fill-opacity:1;" d="M 42.636719 8.875 C 42.886719 8.875 43.070312 8.953125 43.191406 9.109375 C 43.273438 9.226562 43.324219 9.355469 43.34375 9.5 L 44.421875 9.5 C 44.363281 8.949219 44.171875 8.566406 43.851562 8.351562 C 43.527344 8.132812 43.113281 8.023438 42.609375 8.023438 C 42.015625 8.023438 41.546875 8.207031 41.210938 8.578125 C 40.871094 8.945312 40.703125 9.457031 40.703125 10.121094 C 40.703125 10.707031 40.855469 11.183594 41.160156 11.550781 C 41.46875 11.917969 41.945312 12.101562 42.59375 12.101562 C 43.242188 12.101562 43.734375 11.878906 44.0625 11.441406 C 44.269531 11.167969 44.386719 10.878906 44.410156 10.570312 L 43.335938 10.570312 C 43.3125 10.773438 43.25 10.9375 43.144531 11.066406 C 43.042969 11.191406 42.867188 11.257812 42.621094 11.257812 C 42.273438 11.257812 42.035156 11.097656 41.910156 10.773438 C 41.839844 10.605469 41.804688 10.378906 41.804688 10.09375 C 41.804688 9.8125 41.839844 9.5625 41.910156 9.382812 C 42.039062 9.046875 42.285156 8.875 42.636719 8.875 Z M 42.636719 8.875 "/>
<path style=" stroke:none;fill-rule:nonzero;fill:#a0a0a0;fill-opacity:1;" d="M 40.378906 9.050781 C 40.425781 9.050781 40.484375 9.058594 40.546875 9.066406 L 40.546875 8.03125 C 40.503906 8.03125 40.472656 8.027344 40.460938 8.027344 C 40.445312 8.027344 40.429688 8.023438 40.414062 8.023438 C 38.195312 8.023438 38.324219 10.003906 38.324219 10.003906 L 38.324219 12.015625 L 39.332031 12.015625 L 39.332031 10.128906 C 39.332031 9.820312 39.371094 9.59375 39.445312 9.441406 C 39.585938 9.179688 39.855469 9.046875 40.257812 9.046875 C 40.289062 9.046875 40.328125 9.046875 40.375 9.050781 Z M 40.378906 9.050781 "/>
<path style=" stroke:none;fill-rule:nonzero;fill:#a0a0a0;fill-opacity:1;" d="M 34.652344 11.636719 C 35.039062 11.953125 35.488281 12.113281 35.996094 12.113281 C 36.613281 12.113281 37.09375 11.921875 37.433594 11.550781 C 37.621094 11.351562 37.734375 11.15625 37.785156 10.964844 L 36.714844 10.964844 C 36.675781 11.023438 36.628906 11.078125 36.578125 11.117188 C 36.4375 11.234375 36.246094 11.269531 36.015625 11.269531 C 35.800781 11.269531 35.632812 11.238281 35.480469 11.140625 C 35.230469 10.984375 35.089844 10.722656 35.074219 10.335938 L 37.859375 10.335938 C 37.863281 10.003906 37.851562 9.746094 37.824219 9.570312 C 37.777344 9.269531 37.675781 9.003906 37.519531 8.773438 C 37.347656 8.515625 37.125 8.324219 36.859375 8.203125 C 36.59375 8.085938 36.292969 8.023438 35.960938 8.023438 C 35.402344 8.023438 34.945312 8.203125 34.59375 8.558594 C 34.242188 8.914062 34.066406 9.425781 34.066406 10.09375 C 34.066406 10.804688 34.261719 11.320312 34.652344 11.636719 Z M 35.363281 9.074219 C 35.507812 8.929688 35.703125 8.855469 35.960938 8.855469 C 36.199219 8.855469 36.394531 8.921875 36.554688 9.0625 C 36.714844 9.199219 36.800781 9.402344 36.820312 9.671875 L 35.097656 9.671875 C 35.136719 9.417969 35.222656 9.222656 35.363281 9.074219 Z M 35.363281 9.074219 "/>
<path style=" stroke:none;fill-rule:nonzero;fill:#a0a0a0;fill-opacity:1;" d="M 32.742188 9.679688 L 32.742188 12.015625 L 33.664062 12.015625 L 33.664062 9.703125 C 33.664062 8.710938 33.070312 8.011719 32.066406 8.011719 C 31.597656 8.011719 31.195312 8.21875 30.925781 8.546875 C 30.667969 8.21875 30.269531 8.011719 29.78125 8.011719 C 28.796875 8.011719 28.164062 8.738281 28.164062 9.703125 L 28.164062 12.015625 L 29.085938 12.015625 L 29.085938 9.679688 C 29.085938 9.253906 29.371094 8.960938 29.78125 8.960938 C 30.386719 8.960938 30.449219 9.46875 30.449219 9.679688 L 30.449219 12.015625 L 31.371094 12.015625 L 31.371094 9.679688 C 31.371094 9.253906 31.664062 8.960938 32.066406 8.960938 C 32.671875 8.960938 32.742188 9.46875 32.742188 9.679688 Z M 32.742188 9.679688 "/>
<path style=" stroke:none;fill-rule:nonzero;fill:#a0a0a0;fill-opacity:1;" d="M 51.136719 7.519531 L 51.136719 8.605469 C 51.023438 8.421875 50.878906 8.28125 50.699219 8.179688 C 50.519531 8.078125 50.3125 8.023438 50.082031 8.023438 C 49.578125 8.023438 49.175781 8.214844 48.875 8.589844 C 48.574219 8.96875 48.425781 9.511719 48.425781 10.167969 C 48.425781 10.738281 48.578125 11.207031 48.882812 11.570312 C 49.1875 11.933594 49.785156 12.09375 50.316406 12.09375 C 52.171875 12.09375 52.148438 10.492188 52.148438 10.492188 L 52.148438 6.808594 C 52.148438 6.808594 51.136719 6.699219 51.136719 7.519531 Z M 50.941406 10.949219 C 50.796875 11.164062 50.582031 11.269531 50.296875 11.269531 C 50.015625 11.269531 49.804688 11.160156 49.664062 10.949219 C 49.527344 10.734375 49.457031 10.425781 49.457031 10.070312 C 49.457031 9.738281 49.523438 9.460938 49.660156 9.238281 C 49.796875 9.015625 50.011719 8.90625 50.304688 8.90625 C 50.496094 8.90625 50.664062 8.964844 50.808594 9.089844 C 51.046875 9.292969 51.164062 9.65625 51.164062 10.125 C 51.164062 10.464844 51.089844 10.738281 50.941406 10.949219 Z M 50.941406 10.949219 "/>
<path style=" stroke:none;fill-rule:nonzero;fill:#a0a0a0;fill-opacity:1;" d="M 30.292969 13.566406 C 29.464844 13.527344 29.042969 13.726562 28.773438 13.933594 C 28.394531 14.226562 28.164062 14.652344 28.164062 15.339844 L 28.164062 18.863281 L 28.652344 18.863281 C 28.785156 18.863281 28.914062 18.820312 29.007812 18.730469 C 29.117188 18.628906 29.171875 18.507812 29.171875 18.363281 L 29.171875 17.046875 C 29.289062 17.253906 29.445312 17.40625 29.644531 17.503906 C 29.832031 17.589844 30.046875 17.636719 30.292969 17.636719 C 30.757812 17.636719 31.136719 17.449219 31.433594 17.078125 C 31.726562 16.691406 31.875 16.195312 31.875 15.574219 C 31.875 14.957031 31.734375 14.519531 31.402344 14.105469 C 31.128906 13.773438 30.71875 13.585938 30.289062 13.566406 Z M 30.636719 16.457031 C 30.488281 16.664062 30.285156 16.765625 30.027344 16.765625 C 29.753906 16.765625 29.539062 16.664062 29.390625 16.457031 C 29.246094 16.273438 29.171875 15.992188 29.171875 15.621094 C 29.171875 15.21875 29.238281 14.921875 29.375 14.738281 C 29.527344 14.53125 29.734375 14.429688 30 14.429688 C 30.265625 14.429688 30.488281 14.53125 30.632812 14.738281 C 30.78125 14.941406 30.855469 15.238281 30.855469 15.621094 C 30.855469 15.972656 30.78125 16.253906 30.632812 16.457031 Z M 30.636719 16.457031 "/>
<path style=" stroke:none;fill-rule:nonzero;fill:#a0a0a0;fill-opacity:1;" d="M 38.933594 13.929688 C 38.59375 13.667969 38.242188 13.53125 37.640625 13.546875 C 37.03125 13.5625 36.589844 13.734375 36.3125 14.113281 C 36.035156 14.488281 35.898438 14.984375 35.898438 15.589844 C 35.898438 16.109375 36.003906 16.527344 36.210938 16.847656 C 36.417969 17.167969 36.667969 17.382812 36.960938 17.5 C 37.25 17.621094 37.542969 17.644531 37.839844 17.574219 C 38.132812 17.507812 38.367188 17.335938 38.542969 17.0625 L 38.542969 17.3125 C 38.523438 17.625 38.449219 17.859375 38.316406 18.015625 C 38.1875 18.171875 38.042969 18.269531 37.882812 18.304688 C 37.722656 18.335938 37.5625 18.320312 37.402344 18.246094 C 37.242188 18.171875 37.125 18.066406 37.046875 17.929688 L 35.984375 17.929688 C 36.261719 18.761719 36.753906 19.128906 37.640625 19.195312 C 39.074219 19.296875 39.53125 18.074219 39.53125 17.414062 L 39.53125 15.34375 C 39.53125 14.65625 39.308594 14.21875 38.933594 13.929688 Z M 38.511719 15.964844 C 38.472656 16.195312 38.410156 16.363281 38.324219 16.472656 C 38.140625 16.726562 37.855469 16.816406 37.46875 16.746094 C 37.082031 16.671875 36.886719 16.296875 36.886719 15.621094 C 36.886719 15.304688 36.945312 15.027344 37.0625 14.78125 C 37.179688 14.539062 37.398438 14.414062 37.730469 14.414062 C 37.972656 14.414062 38.15625 14.503906 38.28125 14.679688 C 38.40625 14.855469 38.488281 15.054688 38.523438 15.28125 C 38.554688 15.507812 38.550781 15.734375 38.515625 15.964844 Z M 38.511719 15.964844 "/>
<path style=" stroke:none;fill-rule:nonzero;fill:#a0a0a0;fill-opacity:1;" d="M 35.039062 13.824219 C 34.710938 13.660156 34.335938 13.574219 33.917969 13.574219 C 33.269531 13.574219 32.8125 13.746094 32.546875 14.085938 C 32.378906 14.300781 32.285156 14.582031 32.261719 14.917969 L 33.230469 14.917969 C 33.253906 14.769531 33.300781 14.652344 33.375 14.5625 C 33.472656 14.445312 33.644531 14.386719 33.882812 14.386719 C 34.097656 14.386719 34.261719 14.414062 34.371094 14.476562 C 34.480469 14.535156 34.535156 14.644531 34.535156 14.804688 C 34.535156 14.933594 34.464844 15.03125 34.320312 15.089844 C 34.238281 15.128906 34.105469 15.15625 33.917969 15.179688 L 33.578125 15.222656 C 33.1875 15.273438 32.890625 15.355469 32.691406 15.46875 C 32.324219 15.683594 32.140625 16.027344 32.140625 16.5 C 32.140625 16.867188 32.253906 17.152344 32.484375 17.351562 C 32.710938 17.550781 33 17.636719 33.347656 17.652344 C 35.535156 17.75 35.511719 16.488281 35.53125 16.226562 L 35.53125 14.773438 C 35.53125 14.308594 35.367188 13.992188 35.042969 13.824219 Z M 34.53125 16.027344 C 34.523438 16.367188 34.429688 16.597656 34.242188 16.726562 C 34.058594 16.855469 33.855469 16.917969 33.640625 16.917969 C 33.5 16.917969 33.382812 16.878906 33.285156 16.800781 C 33.191406 16.726562 33.140625 16.601562 33.140625 16.429688 C 33.140625 16.234375 33.222656 16.09375 33.378906 16 C 33.472656 15.945312 33.625 15.898438 33.839844 15.863281 L 34.066406 15.820312 C 34.183594 15.796875 34.269531 15.773438 34.335938 15.75 C 34.402344 15.726562 34.464844 15.695312 34.53125 15.652344 Z M 34.53125 16.027344 "/>
<path style=" stroke:none;fill-rule:nonzero;fill:#a0a0a0;fill-opacity:1;" d="M 41.867188 13.535156 C 41.210938 13.535156 40.71875 13.738281 40.398438 14.144531 C 40.074219 14.554688 39.914062 15.035156 39.914062 15.589844 C 39.914062 16.144531 40.074219 16.636719 40.398438 17.039062 C 40.71875 17.441406 41.210938 17.640625 41.867188 17.640625 C 42.523438 17.640625 43.011719 17.441406 43.335938 17.039062 C 43.65625 16.636719 43.820312 16.15625 43.820312 15.589844 C 43.820312 15.023438 43.65625 14.554688 43.335938 14.144531 C 43.011719 13.738281 42.523438 13.535156 41.867188 13.535156 Z M 42.535156 16.484375 C 42.378906 16.691406 42.15625 16.796875 41.863281 16.796875 C 41.570312 16.796875 41.347656 16.691406 41.1875 16.484375 C 41.03125 16.273438 40.953125 15.976562 40.953125 15.589844 C 40.953125 15.203125 41.03125 14.90625 41.1875 14.699219 C 41.347656 14.492188 41.570312 14.386719 41.863281 14.386719 C 42.15625 14.386719 42.378906 14.492188 42.535156 14.699219 C 42.691406 14.90625 42.769531 15.203125 42.769531 15.589844 C 42.769531 15.976562 42.691406 16.273438 42.535156 16.484375 Z M 42.535156 16.484375 "/>
<path style=" stroke:none;fill-rule:nonzero;fill:#a0a0a0;fill-opacity:1;" d="M 25.417969 12.585938 C 25.390625 9.355469 21.390625 6.757812 16.484375 6.800781 C 11.574219 6.839844 7.617188 9.503906 7.644531 12.734375 C 7.644531 12.816406 7.644531 13.046875 7.644531 13.078125 C 7.675781 16.503906 11.175781 19.246094 16.585938 19.203125 C 22.027344 19.15625 25.449219 16.355469 25.421875 12.929688 Z M 16.578125 18.167969 C 11.859375 18.207031 8.011719 15.773438 7.988281 12.726562 C 7.988281 12.605469 7.996094 12.484375 8.003906 12.363281 L 8.058594 11.992188 C 8.070312 11.949219 8.082031 11.910156 8.089844 11.871094 C 8.285156 11.929688 8.425781 11.96875 8.496094 11.984375 C 10.664062 12.484375 11.527344 13 11.785156 13.1875 C 11.953125 13.035156 12.171875 12.949219 12.394531 12.949219 C 12.65625 12.949219 12.902344 13.0625 13.074219 13.257812 C 13.347656 13.082031 13.679688 13.042969 14.015625 13.160156 C 14.238281 13.238281 14.410156 13.378906 14.519531 13.574219 C 14.746094 13.5 15 13.515625 15.253906 13.628906 C 15.746094 13.839844 15.816406 14.296875 15.804688 14.585938 C 16.386719 14.597656 16.855469 15.078125 16.855469 15.667969 C 16.855469 15.808594 16.824219 15.949219 16.773438 16.078125 C 16.933594 16.160156 17.210938 16.273438 17.453125 16.246094 C 17.683594 16.214844 17.753906 16.140625 17.769531 16.117188 C 17.773438 16.117188 17.773438 16.113281 17.773438 16.113281 L 17.121094 15.382812 C 17.003906 15.273438 16.976562 15.164062 17.046875 15.085938 C 17.074219 15.054688 17.113281 15.035156 17.15625 15.035156 C 17.234375 15.035156 17.296875 15.089844 17.347656 15.132812 C 17.703125 15.429688 18.125 15.875 18.132812 15.878906 L 18.140625 15.890625 C 18.152344 15.902344 18.179688 15.921875 18.269531 15.941406 C 18.296875 15.945312 18.332031 15.949219 18.367188 15.949219 C 18.433594 15.949219 18.601562 15.9375 18.722656 15.835938 C 18.746094 15.816406 18.769531 15.792969 18.792969 15.769531 L 18.816406 15.738281 C 18.929688 15.59375 18.824219 15.445312 18.800781 15.417969 L 18.003906 14.515625 C 18.003906 14.515625 17.972656 14.484375 17.945312 14.449219 C 17.859375 14.332031 17.898438 14.253906 17.929688 14.21875 C 17.957031 14.1875 17.996094 14.171875 18.039062 14.171875 C 18.109375 14.171875 18.175781 14.21875 18.238281 14.269531 C 18.449219 14.449219 18.738281 14.738281 19.019531 15.015625 L 19.199219 15.191406 C 19.21875 15.207031 19.324219 15.273438 19.472656 15.273438 C 19.589844 15.273438 19.710938 15.230469 19.832031 15.152344 C 19.996094 15.042969 20.074219 14.910156 20.066406 14.742188 C 20.054688 14.597656 19.933594 14.484375 19.933594 14.480469 L 18.835938 13.367188 C 18.722656 13.269531 18.691406 13.152344 18.753906 13.074219 C 18.78125 13.039062 18.828125 13.019531 18.871094 13.019531 C 18.941406 13.019531 19.003906 13.066406 19.066406 13.117188 C 19.261719 13.285156 19.675781 13.65625 20.296875 14.230469 C 20.332031 14.261719 20.355469 14.285156 20.359375 14.285156 C 20.359375 14.285156 20.472656 14.367188 20.640625 14.367188 C 20.753906 14.367188 20.863281 14.332031 20.972656 14.261719 C 21.089844 14.1875 21.160156 14.078125 21.164062 13.953125 C 21.175781 13.730469 21.023438 13.59375 21.019531 13.59375 C 20.726562 13.335938 18.226562 11.128906 17.640625 10.6875 C 17.304688 10.429688 17.117188 10.363281 16.925781 10.339844 C 16.90625 10.335938 16.882812 10.335938 16.859375 10.335938 C 16.785156 10.335938 16.683594 10.347656 16.601562 10.371094 C 16.304688 10.449219 15.917969 10.730469 15.640625 10.953125 C 15.28125 11.238281 14.945312 11.503906 14.621094 11.578125 C 14.515625 11.601562 14.40625 11.617188 14.289062 11.613281 C 13.980469 11.613281 13.648438 11.527344 13.460938 11.398438 C 13.355469 11.328125 13.28125 11.242188 13.242188 11.152344 C 13.144531 10.925781 13.289062 10.742188 13.355469 10.675781 L 14.109375 9.855469 C 14.117188 9.851562 14.121094 9.84375 14.125 9.839844 C 14.019531 9.863281 13.910156 9.894531 13.796875 9.925781 C 13.523438 10.003906 13.246094 10.082031 12.964844 10.082031 C 12.871094 10.082031 12.777344 10.074219 12.6875 10.066406 L 12.597656 10.058594 C 12.203125 10.03125 10.949219 9.710938 9.84375 9.265625 C 9.84375 9.261719 9.847656 9.261719 9.847656 9.261719 L 10.152344 9.023438 C 11.707031 7.890625 13.96875 7.167969 16.488281 7.144531 C 19.09375 7.125 21.433594 7.855469 23.007812 9.027344 L 23.3125 9.265625 C 23.332031 9.285156 23.351562 9.300781 23.371094 9.320312 L 23.269531 9.363281 C 22.398438 9.769531 21.582031 9.964844 20.777344 9.964844 L 20.773438 9.964844 C 20 9.964844 19.230469 9.777344 18.484375 9.410156 C 18.402344 9.371094 17.628906 9.019531 16.851562 9.015625 C 16.828125 9.015625 16.808594 9.015625 16.789062 9.019531 C 15.546875 9.046875 15.003906 9.589844 14.433594 10.167969 L 13.691406 10.972656 C 13.675781 10.992188 13.667969 11.003906 13.667969 11.007812 C 13.75 11.105469 13.972656 11.175781 14.214844 11.175781 C 14.320312 11.175781 14.421875 11.164062 14.523438 11.140625 C 14.75 11.089844 15.058594 10.84375 15.359375 10.601562 L 15.378906 10.585938 C 15.714844 10.320312 16.054688 10.046875 16.40625 9.933594 C 16.5625 9.882812 16.710938 9.859375 16.851562 9.859375 C 17.003906 9.859375 17.121094 9.886719 17.207031 9.914062 C 17.390625 9.96875 17.601562 10.09375 17.910156 10.328125 C 18.414062 10.707031 20.179688 12.253906 21.203125 13.160156 C 21.777344 12.90625 23.222656 12.304688 25.003906 11.90625 C 25.003906 11.90625 25.003906 11.90625 25.003906 11.902344 C 25.007812 11.914062 25.011719 11.925781 25.015625 11.941406 L 25.066406 12.3125 C 25.074219 12.402344 25.078125 12.496094 25.078125 12.585938 C 25.105469 15.628906 21.300781 18.128906 16.578125 18.167969 Z M 16.578125 18.167969 "/>
<path style=" stroke:none;fill-rule:nonzero;fill:#a0a0a0;fill-opacity:1;" d="M 15.792969 14.988281 C 15.695312 14.988281 15.589844 15.023438 15.519531 15.046875 C 15.472656 15.0625 15.445312 15.074219 15.421875 15.074219 L 15.40625 15.074219 L 15.386719 15.0625 C 15.371094 15.054688 15.363281 15.039062 15.359375 15.023438 C 15.339844 14.992188 15.347656 14.945312 15.382812 14.855469 C 15.382812 14.851562 15.492188 14.546875 15.398438 14.28125 C 15.351562 14.167969 15.269531 14.058594 15.113281 13.992188 C 15.011719 13.949219 14.910156 13.925781 14.816406 13.925781 C 14.609375 13.925781 14.476562 14.03125 14.414062 14.097656 C 14.402344 14.113281 14.378906 14.128906 14.351562 14.128906 C 14.34375 14.128906 14.308594 14.125 14.292969 14.078125 C 14.289062 14.070312 14.28125 14.054688 14.277344 14.035156 C 14.277344 13.988281 14.265625 13.921875 14.242188 13.851562 C 14.195312 13.730469 14.097656 13.597656 13.902344 13.539062 C 13.824219 13.511719 13.746094 13.5 13.667969 13.5 C 13.265625 13.5 13.046875 13.835938 13.035156 13.851562 L 12.957031 13.976562 L 12.953125 13.953125 C 12.953125 13.953125 12.949219 13.953125 12.949219 13.953125 C 12.933594 13.949219 12.929688 13.808594 12.929688 13.808594 C 12.925781 13.773438 12.917969 13.742188 12.910156 13.714844 C 12.835938 13.5 12.636719 13.347656 12.402344 13.347656 C 12.105469 13.347656 11.859375 13.59375 11.859375 13.898438 C 11.859375 13.964844 11.875 14.03125 11.898438 14.089844 C 11.980469 14.285156 12.171875 14.421875 12.394531 14.421875 C 12.535156 14.421875 12.644531 14.335938 12.769531 14.269531 C 12.804688 14.253906 12.839844 14.25 12.851562 14.265625 C 12.859375 14.277344 12.863281 14.292969 12.863281 14.3125 C 12.871094 14.324219 12.875 14.339844 12.871094 14.359375 C 12.859375 14.433594 12.84375 14.597656 12.894531 14.765625 C 12.949219 14.925781 13.070312 15.089844 13.320312 15.1875 C 13.382812 15.214844 13.445312 15.226562 13.507812 15.226562 C 13.617188 15.226562 13.730469 15.1875 13.84375 15.105469 C 13.871094 15.085938 13.890625 15.078125 13.914062 15.078125 C 13.925781 15.078125 13.945312 15.085938 13.960938 15.101562 C 13.972656 15.113281 13.976562 15.128906 13.976562 15.144531 C 13.984375 15.164062 13.988281 15.1875 13.984375 15.207031 C 13.976562 15.25 13.976562 15.3125 13.996094 15.386719 C 14.03125 15.503906 14.128906 15.636719 14.359375 15.730469 C 14.441406 15.765625 14.515625 15.78125 14.585938 15.78125 C 14.738281 15.78125 14.84375 15.703125 14.925781 15.625 C 14.957031 15.597656 14.984375 15.582031 15.011719 15.582031 C 15.054688 15.582031 15.074219 15.613281 15.082031 15.644531 C 15.09375 15.671875 15.097656 15.703125 15.097656 15.722656 C 15.101562 15.808594 15.121094 15.890625 15.152344 15.964844 C 15.261719 16.203125 15.5 16.367188 15.78125 16.367188 C 16.164062 16.367188 16.480469 16.054688 16.480469 15.667969 C 16.480469 15.578125 16.460938 15.488281 16.429688 15.410156 C 16.320312 15.164062 16.078125 14.988281 15.792969 14.984375 Z M 15.792969 14.988281 "/>
</g>
</svg>