<svg width="84" height="20" viewBox="0 0 84 20" fill="none" xmlns="http://www.w3.org/2000/svg">
<path fill-rule="evenodd" clip-rule="evenodd" d="M5.14785 0.80188H7.31354V13.7529C7.31354 14.7425 7.8155 15.1441 8.91507 15.1441H84.0013V16.8604H7.15577C6.59642 16.8604 5.14785 16.7743 5.14785 15.1154V0.80188ZM7.44738 17.4819H84.0013V19.1981H1.74876C0.529672 19.1981 -0.000976562 18.7201 -0.000976562 17.544V0.811451H4.57894V14.1975C4.57894 16.846 5.05702 17.4771 7.44738 17.4771V17.4819ZM14.3316 8.43671H14.4225H14.5133C14.6639 8.44691 14.815 8.42443 14.9561 8.3708C15.0972 8.31716 15.225 8.23364 15.3308 8.12597C15.5352 7.87476 15.6361 7.55502 15.6129 7.23197C15.6409 6.91221 15.545 6.59391 15.3452 6.34276C15.2346 6.23902 15.1033 6.15983 14.9599 6.11039C14.8165 6.06096 14.6644 6.04239 14.5133 6.05592H14.4225H14.3316V8.40803V8.43671ZM12.7014 13.2174V4.76511H14.456C15.1985 4.70783 15.9363 4.92376 16.5308 5.37227C16.7713 5.61302 16.9566 5.90318 17.0738 6.22265C17.191 6.54211 17.2374 6.88325 17.2097 7.22241C17.2438 7.55899 17.2028 7.89895 17.0896 8.21775C16.9764 8.53655 16.7938 8.82625 16.5551 9.06592C16.3163 9.30559 16.0273 9.48927 15.709 9.60368C15.3906 9.71809 15.0508 9.76038 14.7141 9.72751H14.4894H14.3412V13.2366L12.7014 13.2174ZM19.2175 10.4207H20.3458C20.2263 9.82792 20.1259 9.21119 20.0303 8.56101C19.9347 7.91084 19.8582 7.23197 19.7865 6.51486C19.7052 7.14592 19.6143 7.79132 19.5187 8.42716C19.4231 9.06299 19.3227 9.73708 19.2175 10.4064V10.4207ZM16.9658 13.2174L18.9594 4.76511H20.7283L22.6071 13.227H20.9195L20.6374 11.745H18.9116L18.6486 13.227L16.9658 13.2174ZM26.1305 9.99045L26.9241 10.8653C27.0083 10.6057 27.066 10.3382 27.0962 10.0669C27.1375 9.71792 27.1567 9.36664 27.1536 9.01519C27.1897 8.3128 27.0773 7.61069 26.8237 6.9547C26.7569 6.74931 26.6268 6.57033 26.452 6.44342C26.2773 6.3165 26.0668 6.24815 25.8508 6.24815C25.6348 6.24815 25.4244 6.3165 25.2496 6.44342C25.0749 6.57033 24.9448 6.74931 24.8779 6.9547C24.6305 7.65688 24.5233 8.40079 24.5624 9.14426C24.5327 9.79761 24.6436 10.4497 24.8875 11.0566C24.9621 11.2503 25.0931 11.4171 25.2635 11.5356C25.434 11.6541 25.6361 11.7187 25.8437 11.7211H25.9584H26.1018L25.2174 10.7315L26.1305 9.97611V9.99045ZM28.9081 13.0501L27.9902 13.8437L27.1966 12.9689C27.0142 13.0864 26.814 13.1736 26.6038 13.227C26.3596 13.2855 26.109 13.3128 25.858 13.3083C25.424 13.3227 24.9938 13.2231 24.6104 13.0192C24.227 12.8154 23.9039 12.5144 23.6732 12.1466C23.0964 11.1555 22.8237 10.0166 22.8891 8.87176C22.8311 7.78532 23.1082 6.70728 23.6828 5.78341C23.92 5.42642 24.2441 5.13559 24.6246 4.93823C25.0051 4.74088 25.4295 4.64348 25.858 4.65516C26.2942 4.63912 26.727 4.73799 27.1129 4.94188C27.4989 5.14577 27.8245 5.44752 28.0571 5.81688C28.6357 6.81254 28.9083 7.95645 28.8412 9.10603C28.8525 9.70665 28.785 10.3062 28.6404 10.8892C28.5364 11.3338 28.3301 11.7479 28.038 12.0988L28.9081 13.0549V13.0501ZM35.1231 4.76511V10.0813C35.1322 10.5426 35.113 11.004 35.0657 11.4629C35.0402 11.6967 34.9755 11.9246 34.8744 12.137C34.686 12.5282 34.3733 12.8459 33.9852 13.0406C33.0222 13.4292 31.946 13.4292 30.983 13.0406C30.5924 12.8492 30.2788 12.5305 30.0937 12.137C29.9898 11.9233 29.922 11.6939 29.8929 11.4581C29.8461 11.0008 29.827 10.541 29.8356 10.0813V4.76511H31.5232V10.2151C31.4768 10.6709 31.551 11.1309 31.7383 11.549C31.9405 11.7438 32.2104 11.8527 32.4913 11.8527C32.7721 11.8527 33.042 11.7438 33.2442 11.549C33.4206 11.1295 33.4912 10.6731 33.4498 10.2199V4.76511H35.1231ZM36.4043 13.227V4.76511H39.9946V6.33319H38.0823V8.03992H39.8273V9.59365H38.0823V11.5777H39.9946V13.227H36.4043ZM41.8973 13.227V6.33319H40.6066V4.76511H44.9092V6.33319H43.6136V13.227H41.8973ZM45.7219 13.227V4.76511H49.2788V6.33319H47.3665V8.03992H49.1115V9.59365H47.3665V11.5777H49.2788V13.227H45.7219ZM53.242 13.227L52.5775 11.5059C52.5057 11.3168 52.445 11.1237 52.3958 10.9275C52.3385 10.7123 52.2907 10.4924 52.2476 10.263C52.2046 10.4972 52.1568 10.741 52.109 10.9323C52.0612 11.1235 52.0038 11.3338 51.9512 11.5059L51.3728 13.227H49.4605L51.4206 8.92436L49.6373 4.74598H51.4062L52.0469 6.52442C52.0803 6.62481 52.1186 6.7539 52.1616 6.91644C52.2046 7.07899 52.2524 7.28934 52.3098 7.5475C52.3528 7.32759 52.4006 7.13158 52.4484 6.9547C52.4847 6.80669 52.531 6.66134 52.5871 6.51965L53.2134 4.74598H54.9583L53.1751 8.92436L55.0874 13.227H53.242ZM57.0666 8.44628H57.1575H57.2483C57.3989 8.45648 57.5499 8.43399 57.691 8.38035C57.8321 8.32671 57.96 8.24321 58.0658 8.13554C58.2681 7.88319 58.3687 7.56429 58.3479 7.24153C58.3734 6.92202 58.2779 6.6046 58.0801 6.35232C57.9692 6.24907 57.8379 6.17021 57.6946 6.12081C57.5513 6.07141 57.3993 6.05255 57.2483 6.06547H57.1575H57.0666V8.4176V8.44628ZM55.4316 13.227V4.76511H57.2053C57.9492 4.70798 58.6885 4.92383 59.2849 5.37227C59.5222 5.6151 59.705 5.90569 59.8213 6.2247C59.9375 6.54372 59.9844 6.88384 59.959 7.22241C59.9948 7.55892 59.9551 7.89918 59.8428 8.21842C59.7305 8.53766 59.5484 8.82784 59.3098 9.06781C59.0712 9.30779 58.7821 9.49154 58.4635 9.60566C58.1449 9.71978 57.8049 9.76141 57.4682 9.72751H57.2387H57.0905V13.2366L55.4316 13.227ZM62.4688 8.44628H62.5645H62.6601C62.8122 8.45757 62.965 8.43562 63.1078 8.38196C63.2506 8.3283 63.3801 8.24422 63.4871 8.13554C63.6896 7.87979 63.7886 7.55728 63.7644 7.23197C63.7936 6.91436 63.7032 6.5973 63.511 6.34276C63.4013 6.24259 63.272 6.16623 63.1313 6.1185C62.9906 6.07078 62.8416 6.05273 62.6935 6.06547H62.5597H62.4736V8.4176L62.4688 8.44628ZM60.8338 13.227V4.76511H62.5932C63.338 4.70092 64.0814 4.90246 64.6919 5.33402C64.9256 5.57147 65.1049 5.85698 65.2172 6.17071C65.3295 6.48443 65.3721 6.81885 65.3421 7.15071C65.3631 7.64974 65.2491 8.14521 65.0122 8.58493C64.7817 8.95649 64.4227 9.2304 64.0034 9.35462L65.6289 13.2127H63.8457L62.4641 9.72751V13.227H60.8338ZM66.2839 13.227V4.76511H69.8407V6.33319H67.9284V8.03992H69.6734V9.59365H67.9284V11.5777H69.8407V13.227H66.2839ZM70.7252 12.9354V11.1761C70.9117 11.3446 71.1209 11.4863 71.3467 11.5968C71.5419 11.6858 71.7536 11.733 71.9682 11.7354C72.214 11.7486 72.4555 11.6664 72.6422 11.5059C72.7262 11.4286 72.7921 11.3336 72.835 11.2278C72.878 11.122 72.8971 11.008 72.8908 10.894C72.8607 10.683 72.7858 10.4808 72.6712 10.3011C72.5566 10.1214 72.4049 9.96818 72.2263 9.85182L71.9443 9.608C71.5221 9.25231 71.1618 8.82905 70.8781 8.35545C70.6821 7.96747 70.5836 7.53753 70.5913 7.1029C70.5621 6.45451 70.7829 5.81964 71.208 5.32923C71.4126 5.10666 71.663 4.93114 71.942 4.81476C72.2209 4.69838 72.5218 4.64393 72.8239 4.65516C73.0586 4.65536 73.292 4.68916 73.5171 4.75556C73.7723 4.83422 74.0177 4.94168 74.2486 5.07586V6.56746C74.024 6.45419 73.7924 6.35518 73.5554 6.27104C73.4137 6.22193 73.2654 6.19453 73.1155 6.18977C73.0051 6.18424 72.8946 6.20201 72.7915 6.24192C72.6883 6.28183 72.5947 6.34298 72.5167 6.42143C72.4387 6.49988 72.3781 6.59386 72.3387 6.69726C72.2994 6.80066 72.2823 6.91117 72.2885 7.02162C72.2878 7.23463 72.3475 7.44348 72.4606 7.624C72.6933 7.93618 72.9666 8.21592 73.2733 8.45584C73.7081 8.79167 74.0789 9.20299 74.3681 9.67015C74.5398 10.0362 74.6233 10.4373 74.6119 10.8414C74.6304 11.173 74.5825 11.505 74.4708 11.8178C74.3591 12.1307 74.1861 12.418 73.9617 12.6629C73.728 12.8918 73.4491 13.0695 73.1429 13.1847C72.8368 13.2999 72.5099 13.3502 72.1833 13.3322C71.9158 13.3337 71.6492 13.3016 71.3897 13.2366C71.1541 13.1708 70.93 13.0692 70.7252 12.9354ZM75.2812 12.9354V11.1761C75.4677 11.3446 75.6769 11.4863 75.9027 11.5968C76.0981 11.6853 76.3097 11.7325 76.5242 11.7354C76.7717 11.7498 77.0151 11.6676 77.2031 11.5059C77.2854 11.4275 77.3498 11.3323 77.3919 11.2266C77.434 11.121 77.4528 11.0076 77.4469 10.894C77.4221 10.6816 77.3521 10.477 77.2416 10.2939C77.1311 10.1108 76.9827 9.95355 76.8063 9.83269L76.5242 9.58887C76.102 9.23318 75.7417 8.80992 75.4581 8.33632C75.262 7.94835 75.1636 7.5184 75.1712 7.08377C75.1421 6.43539 75.3628 5.80053 75.788 5.31012C75.9925 5.08755 76.2429 4.91201 76.5219 4.79563C76.8009 4.67925 77.1018 4.62481 77.4038 4.63604C77.6385 4.63623 77.872 4.67003 78.0971 4.73643C78.3522 4.8151 78.5976 4.92256 78.8285 5.05674V6.54833C78.6039 6.43506 78.3724 6.33606 78.1353 6.25193C77.9937 6.20245 77.8454 6.17503 77.6955 6.17065C77.5856 6.16727 77.4762 6.18583 77.3736 6.22523C77.271 6.26463 77.1772 6.32409 77.0979 6.40013C77.0206 6.47958 76.9603 6.574 76.9209 6.67759C76.8814 6.78119 76.8636 6.89174 76.8684 7.00249C76.8678 7.2155 76.9274 7.42435 77.0405 7.60487C77.2732 7.91705 77.5465 8.19679 77.8532 8.43671C78.288 8.77254 78.6589 9.18386 78.948 9.65102C79.1197 10.017 79.2032 10.4182 79.1918 10.8223C79.2104 11.1539 79.1624 11.4859 79.0508 11.7987C78.9391 12.1115 78.766 12.3988 78.5417 12.6438C78.3079 12.8726 78.0291 13.0503 77.7229 13.1656C77.4167 13.2808 77.0899 13.331 76.7632 13.3131C76.4973 13.3146 76.2323 13.2824 75.9744 13.2174C75.7369 13.1527 75.5111 13.0511 75.3051 12.9163L75.2812 12.9354ZM80.2579 13.4708V12.1179H80.6643L80.9129 13.0406L81.1567 12.1179H81.587V13.4708H81.3336V12.4047L81.0659 13.4708H80.8029L80.5352 12.4047V13.4708H80.2579ZM81.8356 13.4708V13.2127H82.0937V13.4708H81.8356ZM82.3615 13.4708V12.1179H82.9399C83.0462 12.1126 83.1526 12.1239 83.2555 12.1514C83.3214 12.1747 83.3772 12.2204 83.4132 12.2804C83.4522 12.3453 83.4721 12.4199 83.4706 12.4956C83.4744 12.5886 83.4418 12.6795 83.3798 12.7489C83.3059 12.8176 83.2122 12.8611 83.112 12.8732C83.1679 12.9024 83.218 12.9412 83.2602 12.988C83.3194 13.0564 83.3722 13.13 83.418 13.2079L83.5806 13.4708H83.2555L83.0547 13.1744C83.0145 13.1038 82.9664 13.0381 82.9113 12.9784C82.89 12.9521 82.8619 12.9322 82.83 12.921C82.784 12.9143 82.7373 12.9143 82.6913 12.921H82.6388V13.4852L82.3615 13.4708ZM82.6388 12.6868H82.8395C82.9206 12.6953 83.0023 12.6953 83.0834 12.6868C83.0994 12.683 83.1144 12.676 83.1276 12.6661C83.1408 12.6562 83.1517 12.6437 83.1598 12.6294C83.1793 12.5996 83.1893 12.5646 83.1885 12.529C83.1921 12.4894 83.1801 12.45 83.1551 12.4191C83.1271 12.3892 83.0902 12.3691 83.0499 12.3617H82.6388V12.7011V12.6868ZM83.7288 13.4708V13.2127H83.9869V13.4708H83.7288Z" fill="#A0A0A0"/>
</svg>
