<svg width="83" height="20" viewBox="0 0 83 20" fill="none" xmlns="http://www.w3.org/2000/svg">
<path fill-rule="evenodd" clip-rule="evenodd" d="M31.7047 4.45432C33.6085 4.45432 35.3652 5.48672 35.1249 8.0597C34.8336 11.1176 33.1948 12.8096 30.6093 12.8169H28.3501C28.0252 12.8169 27.8679 13.0819 27.7834 13.625L27.3464 16.4019C27.2809 16.8213 27.0653 17.028 26.7478 17.028H24.6458C24.3108 17.028 24.1943 16.814 24.2686 16.3349L26.0034 5.20568C26.0894 4.65817 26.2947 4.45432 26.6691 4.45432H31.7003H31.7047ZM28.2816 10.4128H29.9932C31.0638 10.372 31.7746 9.63087 31.846 8.29414C31.8897 7.46851 31.3318 6.87732 30.4447 6.88169L28.8337 6.88897L28.2816 10.4128ZM40.8393 16.1762C41.0316 16.0015 41.2267 15.9112 41.1991 16.1267L41.1306 16.6422C41.0957 16.9115 41.202 17.0542 41.4525 17.0542H43.3199C43.6346 17.0542 43.7875 16.9276 43.8647 16.4412L45.0155 9.2217C45.0737 8.85912 44.9849 8.68147 44.7096 8.68147H42.6557C42.4707 8.68147 42.3804 8.78486 42.3323 9.06735L42.2566 9.51146C42.2173 9.74299 42.1109 9.78376 42.0119 9.55078C41.6637 8.72661 40.7752 8.35675 39.5356 8.38588C36.6558 8.44558 34.7141 10.6312 34.5058 13.4328C34.3456 15.5996 35.8984 17.3018 37.9464 17.3018C39.4322 17.3018 40.0964 16.8649 40.8451 16.1806L40.8393 16.1762ZM39.2748 15.0652C38.0353 15.0652 37.1715 14.0764 37.3506 12.8649C37.5298 11.6534 38.6893 10.6647 39.9289 10.6647C41.1685 10.6647 42.0323 11.6534 41.8531 12.8649C41.6739 14.0764 40.5159 15.0652 39.2748 15.0652ZM48.6702 8.65817H46.7765C46.3862 8.65817 46.2274 8.9494 46.3512 9.30761L48.7022 16.1893L46.3964 19.4641C46.2026 19.7379 46.3527 19.9869 46.6251 19.9869H48.7532C48.8772 20.0012 49.0028 19.9796 49.1149 19.9246C49.2269 19.8696 49.3208 19.7836 49.3854 19.6767L56.6161 9.30906C56.839 8.99017 56.7341 8.65526 56.3685 8.65526H54.354C54.0088 8.65526 53.8704 8.79214 53.6723 9.079L50.657 13.4474L49.3096 9.0688C49.231 8.80379 49.0343 8.65817 48.6716 8.65817H48.6702Z" fill="#A0A0A0"/>
<path fill-rule="evenodd" clip-rule="evenodd" d="M64.1378 4.45433C66.0416 4.45433 67.7984 5.48673 67.558 8.05972C67.2667 11.1176 65.628 12.8096 63.0424 12.8169H60.7846C60.4598 12.8169 60.3025 13.0819 60.218 13.6251L59.781 16.4019C59.7155 16.8213 59.4999 17.028 59.1823 17.028H57.0804C56.7454 17.028 56.6288 16.814 56.7031 16.3349L58.4409 5.20278C58.5268 4.65528 58.7322 4.45142 59.1066 4.45142H64.1378V4.45433ZM60.7147 10.4128H62.4263C63.4969 10.3721 64.2077 9.63089 64.2791 8.29416C64.3228 7.46853 63.7649 6.87734 62.8778 6.8817L61.2668 6.88899L60.7147 10.4128ZM73.2724 16.1762C73.4647 16.0015 73.6599 15.9112 73.6322 16.1267L73.5637 16.6422C73.5288 16.9116 73.6351 17.0543 73.8856 17.0543H75.753C76.0677 17.0543 76.2206 16.9276 76.2978 16.4412L77.4486 9.22171C77.5068 8.85913 77.418 8.68149 77.1427 8.68149H75.0917C74.9067 8.68149 74.8164 8.78487 74.7684 9.06736L74.6926 9.51148C74.6533 9.74301 74.547 9.78378 74.4479 9.5508C74.0998 8.72663 73.2112 8.35677 71.9716 8.38589C69.0918 8.44559 67.1501 10.6313 66.9418 13.4329C66.7816 15.5996 68.3344 17.3018 70.3824 17.3018C71.8682 17.3018 72.5324 16.865 73.2811 16.1806L73.2724 16.1762ZM71.7094 15.0652C70.4698 15.0652 69.606 14.0765 69.7852 12.865C69.9644 11.6535 71.1239 10.6647 72.3635 10.6647C73.6031 10.6647 74.4668 11.6535 74.2877 12.865C74.1085 14.0765 72.949 15.0652 71.7094 15.0652ZM80.3225 17.0659H78.1667C78.1292 17.0676 78.0918 17.061 78.0572 17.0465C78.0225 17.0321 77.9915 17.0101 77.9663 16.9823C77.9411 16.9545 77.9224 16.9215 77.9115 16.8856C77.9005 16.8497 77.8976 16.8118 77.903 16.7747L79.7967 4.78196C79.8148 4.70011 79.86 4.62679 79.9251 4.57391C79.9901 4.52104 80.0712 4.49172 80.155 4.49073H82.3108C82.3483 4.48906 82.3857 4.49568 82.4204 4.51013C82.455 4.52458 82.486 4.54649 82.5112 4.57431C82.5364 4.60213 82.5551 4.63517 82.5661 4.67107C82.577 4.70696 82.5799 4.74483 82.5745 4.78196L80.6809 16.7747C80.6634 16.8571 80.6184 16.9311 80.5532 16.9845C80.4881 17.038 80.4068 17.0677 80.3225 17.0688V17.0659Z" fill="#A0A0A0"/>
<path fill-rule="evenodd" clip-rule="evenodd" d="M3.67631 0H9.32515C10.9158 0 12.8036 0.0509647 14.0651 1.16491C14.9084 1.90899 15.3513 3.09283 15.2493 4.3684C14.9026 8.68001 12.3229 11.0957 8.86194 11.0957H6.07685C5.60199 11.0957 5.28881 11.4103 5.1548 12.2606L4.37695 17.2115C4.32597 17.5318 4.18759 17.7211 3.93996 17.7444H0.454226C0.0682172 17.7444 -0.0687081 17.4532 0.0318 16.8096L2.53722 0.940661C2.63773 0.302875 2.98878 0 3.67631 0Z" fill="#A0A0A0"/>
<path fill-rule="evenodd" clip-rule="evenodd" d="M7.2054 4.70769H12.8484C15.8782 4.70769 17.0188 6.241 16.8425 8.49364C16.5512 12.2126 14.3021 14.2701 11.3189 14.2701H9.81279C9.40347 14.2701 9.12816 14.541 9.01746 15.2749L8.378 19.5413C8.33575 19.818 8.19009 19.9782 7.97159 20H4.42613C4.09256 20 3.97458 19.7452 4.06198 19.1933L6.22363 5.51584C6.30811 4.96834 6.60818 4.70769 7.2054 4.70769Z" fill="#CCCCCC"/>
<path opacity="0.6" fill-rule="evenodd" clip-rule="evenodd" d="M5.23633 11.7583L6.22247 5.51584C6.30841 4.96833 6.60848 4.70622 7.2057 4.70622H12.8487C13.7824 4.70622 14.5384 4.85184 15.1298 5.12122C14.5632 8.95959 12.0796 11.0914 8.8284 11.0914H6.04768C5.67478 11.0928 5.40093 11.2792 5.23633 11.7583Z" fill="#A0A0A0"/>
</svg>
