<svg width="53" height="16" viewBox="0 0 53 16" fill="none" xmlns="http://www.w3.org/2000/svg">
<path d="M29.4414 0.590332V15.8672H42.4106V12.5664H34.2903V9.03203H41.6512V5.93576H34.2903V4.35842H42.4106V0.590332H29.4414Z" fill="#A0A0A0"/>
<path d="M44.1641 5.46811H45.9167V2.19659L49.0713 6.40283V0.327148H44.1641V5.46811Z" fill="#A0A0A0"/>
<path d="M44.1641 8.73978H45.9167V11.8945L49.0713 7.68822V15.6333H44.1641V8.73978Z" fill="#A0A0A0"/>
<path d="M50.8359 1.84381V0.586609H51.3699C51.5043 0.586609 51.6024 0.598293 51.6632 0.620493C51.7239 0.642692 51.773 0.683586 51.8092 0.740838C51.8454 0.79809 51.8641 0.864688 51.8641 0.939466C51.8641 1.03411 51.8361 1.11122 51.7812 1.17315C51.7263 1.23507 51.6433 1.27363 51.5323 1.28882C51.5872 1.32036 51.6328 1.35658 51.6678 1.39397C51.7029 1.43136 51.752 1.5003 51.8127 1.59844L51.9658 1.84381H51.662L51.4786 1.5704C51.4131 1.47226 51.3687 1.4115 51.3442 1.38579C51.3197 1.36009 51.2951 1.34256 51.2682 1.33322C51.2414 1.32387 51.1993 1.3192 51.1409 1.3192H51.0895V1.84381H50.8359ZM51.0895 1.11823H51.2776C51.3991 1.11823 51.4751 1.11356 51.5054 1.10304C51.5358 1.09253 51.5592 1.075 51.5767 1.0493C51.5942 1.02359 51.6024 0.993212 51.6024 0.954655C51.6024 0.912593 51.5907 0.878709 51.5685 0.851836C51.5463 0.826131 51.5136 0.809773 51.4727 0.802763C51.4517 0.800426 51.3909 0.798089 51.2869 0.798089H51.0883V1.11823H51.0895Z" fill="#A0A0A0"/>
<path d="M51.4026 2.43027C50.7331 2.43027 50.1875 1.88463 50.1875 1.21514C50.1875 0.545643 50.7331 0 51.4026 0C52.0721 0 52.6178 0.545643 52.6178 1.21514C52.6178 1.88463 52.0721 2.43027 51.4026 2.43027ZM51.4026 0.23368C50.8617 0.23368 50.4212 0.674167 50.4212 1.21514C50.4212 1.7561 50.8617 2.19659 51.4026 2.19659C51.9436 2.19659 52.3841 1.7561 52.3841 1.21514C52.3841 0.674167 51.9436 0.23368 51.4026 0.23368Z" fill="#A0A0A0"/>
<path d="M15.1523 15.75V0.327148H21.0434C23.0542 0.327148 24.3652 0.4066 24.9763 0.564334C25.9145 0.801519 26.7008 1.31562 27.3341 2.10779C27.9674 2.89997 28.284 3.92465 28.284 5.17951C28.284 6.14812 28.1017 6.96249 27.736 7.62147C27.3715 8.28162 26.9076 8.79922 26.3445 9.17661C25.7825 9.55284 25.2099 9.80288 24.6292 9.92439C23.8394 10.0751 22.6967 10.1499 21.1988 10.1499H19.9767V15.75H15.1523ZM19.8633 3.48183V6.87019H21.0598C21.9209 6.87019 22.4981 6.80827 22.7878 6.68325C23.0788 6.55823 23.3054 6.3631 23.4714 6.09671C23.6361 5.83031 23.7191 5.52069 23.7191 5.16783C23.7191 4.73319 23.6034 4.37566 23.372 4.0929C23.1407 3.81015 22.8474 3.63372 22.4934 3.56362C22.2329 3.50987 21.7082 3.48183 20.9196 3.48183H19.8633Z" fill="#A0A0A0"/>
<path d="M0 10.609L4.43992 10.3753C4.61518 11.178 4.85354 11.9807 5.38866 12.3967C5.92379 12.8126 6.20537 13.0206 7.16814 13.0206C8.22787 13.0206 8.32485 12.8255 8.85881 12.4329C9.21868 12.1595 9.39861 11.7914 9.39861 11.3322C9.39861 11.0191 9.30163 10.7597 9.10651 10.5541C8.90204 10.359 8.4452 9.94418 7.73481 9.7771C4.42824 9.04451 3.03434 8.37385 2.14986 7.76628C0.924205 6.92503 0.662483 5.98915 0.662483 4.49126C0.662483 3.14059 1.30978 2.23975 2.36952 1.31905C3.42925 0.399521 4.83951 0.172852 7.06649 0.172852C9.18596 0.172852 10.7621 0.519866 11.7927 1.21506C12.8232 1.91026 13.1071 3.34739 13.4962 4.70741L9.05627 4.94109C8.89036 4.33469 8.7595 3.71194 8.29798 3.38829C7.83646 3.06581 7.30367 2.83797 6.71947 2.83797C6.13527 2.83797 5.87121 2.93962 5.40385 3.24224C5.09306 3.45722 4.93649 3.73647 4.93649 4.07881C4.93649 4.37208 5.07203 4.62212 5.34543 4.82776C5.71465 5.10233 6.17383 5.25422 8.3564 5.7543C10.539 6.2532 11.8301 6.98229 12.6958 7.70553C13.5511 8.43928 13.9799 9.4628 13.9799 10.7737C13.9799 12.2027 13.3864 13.4307 12.2004 14.4589C11.0133 15.4859 9.49208 16 7.16814 16C5.058 16 3.15351 15.57 1.92436 14.7077C0.692861 13.8478 0.37973 12.087 0 10.609Z" fill="#A0A0A0"/>
</svg>
