<svg width="49" height="16" viewBox="0 0 49 16" fill="none" xmlns="http://www.w3.org/2000/svg">
<path fill-rule="evenodd" clip-rule="evenodd" d="M12.2148 15.8754H8.00005L4.83949 3.46305C4.68948 2.89208 4.37096 2.38731 3.90242 2.14941C2.73314 1.55155 1.44467 1.07574 0.0390625 0.835771V0.357895H6.82871C7.76578 0.357895 8.46859 1.07574 8.58572 1.90944L10.2256 10.8629L14.4383 0.357895H18.5359L12.2148 15.8754ZM20.8789 15.8752H16.8984L20.1761 0.357747H24.1566L20.8789 15.8752ZM29.3053 4.6567C29.4224 3.82093 30.1252 3.34306 30.9452 3.34306C32.2337 3.22307 33.6372 3.46304 34.8085 4.05884L35.5113 0.717847C34.34 0.239972 33.0515 0 31.8823 0C28.0189 0 25.2077 2.1494 25.2077 5.1325C25.2077 7.4019 27.199 8.59348 28.6046 9.31133C30.1253 10.0271 30.7109 10.505 30.5938 11.2208C30.5938 12.2944 29.4224 12.7723 28.2532 12.7723C26.8476 12.7723 25.442 12.4144 24.1555 11.8166L23.4527 15.1596C24.8583 15.7554 26.379 15.9954 27.7846 15.9954C32.1165 16.1133 34.8085 13.966 34.8085 10.7429C34.8085 6.68405 29.3053 6.44615 29.3053 4.6567ZM48.7406 15.8752L45.58 0.357747H42.1852C41.4824 0.357747 40.7796 0.835623 40.5453 1.5514L34.6927 15.8752H38.7903L39.6082 13.6079H44.6429L45.1115 15.8752H48.7406ZM42.7725 4.53678L43.9418 10.3851H40.6641L42.7725 4.53678Z" fill="#A0A0A0"/>
</svg>
